<svg xmlns="http://www.w3.org/2000/svg" viewBox="0 0 120 161" preserveAspectRatio="xMinYMid"><path d="M62.2 70.8C55.4 47 54.6 32.8 41.6 4a92.6 92.6 0 0 1-.6 10.2s1.5 24.8 2 49.5c0 8-.2 36.3 9.6 49 3 4 7.5 5.3 12.8 5.3 9.2 0 9.7-2.7 9.7-6.6S68.8 93 62.3 70.8z" fill="red" opacity=".2"/><path d="M87.3 84.2a148 148 0 0 1 0-20.2c-7.6 16.2-6 21.7-9 33.2-2.4 9.8-5.8 13.4-5.8 18.4 0 1 0 2.4 3.5 2.4 14 .2 11.3-33.8 11.3-33.8z" fill="#ff8000" opacity=".3"/><path d="M56 108c0-7-7.8-26.6-14.6-51.4C36.6 38.6 32.7 21 31 19c0 0-3 16.5-3 31s2 18.3 4 36.2S35.4 119 48.5 119c7.7 0 7.6-10.6 7.6-11zM82 104c0-10.5-2.2-23.6-4.4-42.4C75.3 41 77 25.3 65.3 0c0 25.4-6.8 82.8-6.8 82.8s-4 33.2 11.8 33.2c12 0 11.7-12 11.7-12z" fill="#ff0" opacity=".5"/><path d="M103.5 67s-1.8-22.3-1.8-37c-7 7-10 32.7-15.2 48.3s-10 31-10 32.4c0 3.3 1.4 5.3 3 5.3 17-5.6 18-16 21-27.7a81.8 81.8 0 0 0 3-21.2z" fill="#ff8000" opacity=".3"/><path d="M81.6 9C81.6 27.6 69 74.2 69 97.2c0 2.2-1 19.8 7.4 19.8 11.4 0 10.3-11.4 10.3-11.4s2-89-5-96.6z" fill="#ff8000" opacity=".3"/><path d="M74 107l-2.5-34.6S69 32 63.8 27c0 24-7.8 50-7.8 72.3 0 0-1.3 19.7 9 19.7s9-12 9-12z" fill="#ff8000" opacity=".3"/><path d="M65.4 102.8c0-10.3-5.6-23.2-10.7-40.6s-7.5-33.8-13-44.2c0 3.6-1.2 20-1.2 30.3 0 35.3 5.4 32 5.4 55.7 0 0 1 14 9.4 14 11.8 0 10-14.3 10-15.2z" fill="#ff8000" opacity=".3"/><path d="M51.5 115c0-5.2-10.5-24.5-15-34.6S34 57.4 19.7 28c0 21.7-1.2 31.5-1.2 37.6 0 25.2 3 39.6 14.4 46.5 3.8 2.4 9.8 6 15.5 6a2.8 2.8 0 0 0 3-3z" fill="#ff8000" opacity=".3"/><path d="M77.6 54S71 97.3 71 102.3s-.4 13.7 5.5 13.7c3.2 0 4 0 4-16 0-10 .5-26 .5-28a48.6 48.6 0 0 0-3.4-18z" fill="red" opacity=".2"/><ellipse cx="60" cy="150" rx="60" ry="11" fill="#6d7222"/><path d="M113.2 121c-5.3 3-27.3 5-53.4 5s-47-2-53-4.8a13 13 0 0 0-1.8 6.4c0 14 24.6 25.4 55 25.4s55-11.4 55-25.5a13 13 0 0 0-1.8-6.5z" fill="#4b3a1e"/><path d="M95.8 125c-6.3.6-14 1-22.2 1.4v1c0 14-6 25.5-13.5 25.5s-13.4-11.4-13.4-25.5v-1c-8.4-.3-16-.8-22.4-1.5a14.5 14.5 0 0 0-.2 2.6c0 14 16.2 25.4 36 25.4s36-11.3 36-25.4z" fill="#fff" opacity=".1"/><ellipse cx="60" cy="120" rx="55" ry="7" fill="#373223"/><ellipse cx="60" cy="118.5" rx="48" ry="4.5" fill="#0f140a"/><path d="M71.2 113s3-11.4-1.6-16c-4.6 0-9 15.2-9 15.2s-9.6-13.6-16-13.6c0 6.3 4 14.4 4 14.4s-11.3-7.2-22.6-7.2c0 0 7.3 15.2 33.8 15.2S94 106 94 106c-4-4-22.8 7-22.8 7z" fill="#504641"/></svg>
