<svg xmlns="http://www.w3.org/2000/svg" width="64" height="64">
<g transform="matrix(1.33,0,0,-1.33,-288,502)">
	<path fill="#FFF" d="M241.8,359.6c-10.9,0-19.8-8.9-19.8-19.8c0-4.1,1.2-7.8,3.3-11H259c1.8,3.2,2.5,7.1,2.5,11C261.6,349.9,252.7,359.6,241.8,359.6"/>
	<path fill="#53BD8A" d="M229.3,365.7c-1.3,0.1-2.3,1.2-2.2,2.5l0.2,2.8c0.1,1.2,1.1,2.2,2.3,2.2c0,0,0.1,0,0.1,0l2.8-0.2c0.6,0,1.2-0.3,1.6-0.8c0.4-0.5,0.6-1.1,0.6-1.7l-0.2-2.8c0-0.2,0-0.3-0.1-0.4l-0.1-0.5l-1.8-1.4L229.3,365.7z"/>
	<path fill="#282828" d="M229.6,374.6c-2,0-3.6-1.5-3.7-3.5l-0.2-2.8l0,0l0,0c-0.1-2.1,1.4-3.8,3.5-3.9l2.8-0.2l1-0.1l0.8,0.6l1,0.8l0.9,0.7l0.2,1c0,0.2,0.1,0.4,0.1,0.6l0.2,2.8c0.1,1-0.3,2-0.9,2.7c-0.7,0.8-1.6,1.2-2.6,1.2l-2.8,0.2l0,0l0,0C229.8,374.6,229.7,374.6,229.6,374.6 M231.7,368.5l0.1,1.7l-1.7,0.1l-0.1-1.7L231.7,368.5 M229.6,371.8C229.6,371.8,229.6,371.8,229.6,371.8l2.8-0.2c0.2,0,0.5-0.1,0.6-0.3c0.2-0.2,0.2-0.4,0.2-0.7l-0.2-2.8c0,0,0-0.1,0-0.1l-1-0.8l-2.8,0.2c-0.5,0-0.9,0.5-0.9,1l0.2,2.8C228.7,371.4,229.1,371.8,229.6,371.8"/>
	<path fill="#282828" d="M241.1,361.1c-11.7,0-21.2-9.5-21.2-21.2c0-4,1.1-7.8,3.1-11h3.4c-2.3,3.1-3.7,6.9-3.7,11c0,10.2,8.3,18.4,18.4,18.4c4.8,0,9.4-2,13-5.7c3.4-3.5,5.4-8.2,5.4-12.7c0-3.1-0.5-7.4-2.8-11h3.2c1.5,3.1,2.4,6.8,2.4,11c0,5.3-2.3,10.6-6.2,14.7C252,358.7,246.7,361.1,241.1,361.1"/>
	<path fill="#282828" d="M237.1,334.1c0-1-0.9-1.9-1.9-1.9c-1,0-1.9,0.9-1.9,1.9c0,1,0.9,1.9,1.9,1.9C236.3,336,237.1,335.1,237.1,334.1"/>
	<path fill="#282828" d="M248.9,334.1c0-1-0.9-1.9-1.9-1.9s-1.9,0.9-1.9,1.9c0,1,0.9,1.9,1.9,1.9S248.9,335.1,248.9,334.1"/>
	<path fill="#F37028" d="M219.5,334.8l10.5,11.2l-2.5-8c8.3,6,16.9,5,23,3.3c6.5-1.9,11,3.8,6.5,9.9c-2.1,2.9-5,5.3-8.3,6.7c-8.6,3.8-17.3,1.6-23.1-4.3C219.5,347.4,219.5,340.5,219.5,334.8"/>
	<path fill="#282828" d="M240.1,358.5c-1.2,0-2.5-0.1-3.6-0.4c-3.6-0.8-7-2.6-9.8-5.4c-4.6-4.6-5.5-9.6-5.7-14.2l12.3,13.1l-3.3-10.2c6.1,3.2,13.1,3.7,20.9,1.4c2.5-0.7,4.7-0.2,5.8,1.4c1.2,1.6,0.9,4-0.8,6.3c-2,2.7-4.7,4.9-7.7,6.3C245.6,357.9,242.9,358.5,240.1,358.5 M218.1,331.3v3.5c0,5.9,0,13.2,6.6,19.8c3.1,3.2,7,5.3,11.2,6.2c4.4,0.9,9.1,0.4,13.4-1.6c3.4-1.5,6.5-4.1,8.8-7.2c2.4-3.3,2.7-6.9,0.8-9.6c-1.8-2.6-5.3-3.6-8.9-2.5c-8.3,2.4-15.6,1.4-21.7-3.1l-3.5-2.5l2,6.2L218.1,331.3z"/>
	<path fill="#F37028" d="M246.2,360.7c-1.2-3.3-4.9-5.1-8.3-4.1c-3.8,1-5.8,4.1-5.3,8c0.5,3.8,3.1,7.2,6.1,11.4c-2.5-5.2-0.4-5.7,0.3-5.7c0.7,0,1.6-0.1,2.9-0.5C245.6,368.4,247.6,364.4,246.2,360.7"/>
	<path fill="#282828" d="M236.5,370.3c-1.3-2-2.2-3.9-2.5-5.9c-0.4-3.2,1.2-5.6,4.3-6.5c2.7-0.8,5.6,0.7,6.5,3.3c0.5,1.4,0.5,2.9-0.2,4.3c-0.7,1.3-1.8,2.4-3.2,2.8c-1.2,0.4-2,0.5-2.5,0.5c-1,0-1.9,0.4-2.4,1.2C236.6,370.1,236.6,370.2,236.5,370.3 M239.8,354.9c-0.7,0-1.5,0.1-2.2,0.3c-2.2,0.6-3.9,1.8-5,3.5c-1.1,1.7-1.5,3.7-1.3,6c0.5,4,2.9,7.3,5.7,11.2c0.2,0.3,0.4,0.5,0.6,0.8l2.4-1.4c-1.2-2.6-1.1-3.5-1-3.7c0.9,0,2.1-0.2,3.4-0.6c2.2-0.7,3.9-2.3,4.9-4.3c1-2.1,1-4.4,0.2-6.5C246.3,357,243.1,354.9,239.8,354.9"/>
	<path fill="#53BD8A" d="M242.6,348.2c-0.5,0-0.9,0.2-1.3,0.6l-0.9,1.1c-0.6,0.7-0.5,1.6,0.2,2.2c-0.2,0.1-0.4,0.2-0.5,0.4l-0.2,0.3c-0.6,0.7-0.5,1.7,0.2,2.3l0.1,0.1l-1.4,1.7c-0.6,0.8-0.5,1.9,0.3,2.5c0.3,0.3,0.7,0.4,1.1,0.4c0.5,0,1-0.2,1.4-0.7l5.9-7.3c0.6-0.8,0.5-1.9-0.3-2.5c-0.2-0.2-0.5-0.3-0.7-0.4c-0.1,0-0.3,0-0.4,0l0,0c-0.5,0-0.9,0.2-1.2,0.5l-1.2-1C243.4,348.4,243,348.2,242.6,348.2"/>
	<path fill="#282828" d="M242.5,360c-0.6,0.7-1.4,1.1-2.3,1.1c-0.7,0-1.3-0.2-1.8-0.7c-1.2-1-1.4-2.8-0.4-4.1l0.8-0.9c-0.6-1-0.5-2.2,0.3-3.1l0.1-0.2c-0.3-0.9-0.2-2,0.5-2.8l0.9-1.1c0.5-0.7,1.3-1,2.2-1c0.7,0,1.3,0.2,1.8,0.6l0.6,0.5c0.4-0.2,0.8-0.2,1.1-0.2c0.2,0,0.4,0,0.7,0.1c0.4,0.1,0.9,0.3,1.2,0.6c1.2,1,1.4,2.8,0.4,4.1L242.5,360L242.5,360z M240.2,358.7c0.2,0,0.4-0.1,0.5-0.2l5.9-7.3c0.2-0.3,0.2-0.7-0.1-0.9c-0.1-0.1-0.2-0.1-0.3-0.1c0,0-0.1,0-0.1,0c-0.2,0-0.4,0.1-0.5,0.2l-0.6,0.7l-2.1-1.7c-0.1-0.1-0.2-0.1-0.3-0.1c-0.1,0-0.3,0.1-0.4,0.2l-0.9,1.1c-0.2,0.2-0.1,0.5,0.1,0.7l2.1,1.7l-0.9,1l-1-0.9c-0.1-0.1-0.2-0.1-0.3-0.1c-0.1,0-0.3,0.1-0.4,0.2l-0.2,0.3c-0.2,0.2-0.1,0.5,0.1,0.7l1,0.9l-2.1,2.6c-0.2,0.3-0.2,0.7,0.1,0.9C239.9,358.7,240.1,358.7,240.2,358.7"/>
</g>
</svg>
